<?xml version="1.0" standalone="no"?>
<!DOCTYPE svg PUBLIC "-//W3C//DTD SVG 20010904//EN"
 "http://www.w3.org/TR/2001/REC-SVG-20010904/DTD/svg10.dtd">
<svg version="1.0" xmlns="http://www.w3.org/2000/svg"
 width="2496.000000pt" height="826.000000pt" viewBox="0 0 2496.000000 826.000000"
 preserveAspectRatio="xMidYMid meet">
<metadata>
Created by potrace 1.15, written by Peter Selinger 2001-2017
</metadata>
<g transform="translate(0.000000,826.000000) scale(0.100000,-0.100000)"
fill="#000000" stroke="none">
<path d="M20420 7595 c-1212 -136 -2259 -864 -2803 -1950 -39 -78 -88 -193
-157 -365 -19 -49 -89 -279 -114 -375 -50 -197 -97 -552 -95 -724 l1 -96 19
144 c61 462 199 927 411 1386 60 128 138 278 138 264 0 -3 -11 -39 -25 -79
-26 -77 -49 -190 -61 -299 -3 -37 -19 -93 -36 -130 -44 -99 -112 -292 -152
-431 -177 -622 -166 -1309 31 -1925 177 -555 507 -1073 928 -1458 244 -223
490 -390 800 -542 350 -173 705 -277 1115 -327 157 -19 613 -16 770 6 498 68
934 221 1345 471 125 76 319 215 311 222 -3 3 -23 -9 -46 -27 -23 -18 -43 -30
-45 -28 -3 3 16 19 41 37 25 18 48 31 51 27 3 -3 18 1 32 8 14 8 66 26 115 41
49 15 114 38 145 51 l55 25 -24 -27 c-53 -57 -293 -241 -455 -349 -337 -224
-624 -370 -970 -491 -82 -29 -143 -53 -134 -53 9 -1 80 17 157 39 1174 332
2107 1257 2446 2426 203 701 184 1470 -53 2155 -133 386 -328 735 -601 1080
-97 123 -398 424 -523 523 -554 440 -1178 698 -1863 771 -171 18 -591 18 -754
0z m785 -139 c317 -41 623 -120 886 -228 111 -46 160 -80 142 -99 -10 -10 -21
-10 -54 0 -31 9 -39 15 -30 24 17 17 14 25 -19 42 -42 22 -235 22 -244 -1 -9
-22 9 -49 47 -73 19 -11 41 -38 51 -58 12 -27 31 -46 64 -63 42 -22 49 -31 67
-85 36 -108 44 -119 103 -156 80 -52 128 -73 147 -66 13 6 14 11 5 28 -16 29
-9 31 41 14 66 -24 119 -62 119 -86 0 -17 3 -19 14 -10 8 6 18 11 22 10 23 -4
26 3 9 21 -10 11 -14 20 -10 20 20 0 -152 153 -198 177 -29 14 -77 51 -107 82
-30 31 -70 67 -87 80 -46 33 -41 42 13 26 32 -9 65 -32 107 -73 117 -111 201
-128 142 -27 l-26 45 25 0 c15 0 34 -12 50 -31 22 -25 25 -37 20 -65 -7 -40 8
-64 40 -64 12 0 35 -14 52 -31 26 -28 26 -30 6 -19 -48 24 -32 1 26 -38 36
-25 64 -53 72 -72 14 -33 7 -51 -12 -32 -7 7 -16 12 -20 12 -12 0 -10 -38 3
-62 14 -27 4 -35 -19 -15 -21 19 -42 22 -42 6 0 -6 -9 -9 -20 -6 -24 6 -26 -2
-4 -18 15 -11 15 -14 0 -38 -13 -19 -15 -30 -7 -45 8 -15 7 -23 -4 -32 -14
-11 -14 -15 0 -30 20 -23 19 -37 -5 -50 -13 -7 -19 -18 -16 -28 19 -73 19 -75
-14 -70 -35 5 -38 -2 -9 -20 27 -17 20 -36 -17 -42 -48 -8 -37 -34 16 -38 26
-2 53 -11 65 -22 11 -10 29 -20 40 -22 22 -4 85 -93 85 -120 0 -26 -40 -48
-88 -48 -48 0 -111 -25 -119 -47 -3 -8 15 -44 41 -81 34 -50 46 -77 46 -104 0
-29 6 -41 30 -58 19 -13 30 -30 30 -45 0 -30 25 -39 58 -19 26 15 28 14 70
-24 36 -33 42 -45 42 -79 0 -27 -9 -53 -27 -79 -14 -21 -30 -56 -35 -78 -7
-32 -5 -45 17 -84 36 -64 28 -113 -26 -163 -31 -28 -39 -43 -39 -71 0 -19 -7
-43 -15 -54 -9 -12 -14 -43 -15 -85 0 -36 -5 -91 -11 -122 -9 -43 -9 -72 0
-119 23 -118 30 -136 54 -140 30 -4 34 -58 12 -166 -28 -133 -8 -196 77 -244
25 -14 49 -38 61 -61 11 -21 32 -44 47 -52 29 -15 33 -23 45 -81 7 -38 24 -54
85 -83 25 -12 69 -40 99 -61 30 -22 63 -40 73 -40 24 0 71 24 128 66 39 28 52
32 87 27 40 -5 41 -5 98 67 43 54 71 78 109 96 28 13 56 24 63 24 7 0 24 -16
39 -35 26 -34 28 -35 75 -29 l47 6 11 -38 c14 -50 14 -99 -1 -199 l-12 -82 42
-75 c47 -86 78 -214 67 -281 -3 -23 -9 -82 -13 -132 -6 -78 -12 -99 -44 -158
-25 -44 -38 -81 -38 -105 0 -21 -14 -65 -31 -102 -26 -53 -34 -88 -45 -194
-13 -116 -18 -137 -57 -220 -89 -187 -306 -475 -526 -698 -154 -155 -146 -151
-361 -190 -156 -28 -455 -30 -615 -4 -288 47 -523 124 -808 267 -66 34 -138
72 -161 86 l-41 26 45 20 c25 11 67 21 95 21 47 1 51 3 87 51 41 54 96 160
135 264 20 54 23 75 18 127 l-7 62 39 25 c27 17 46 40 63 78 13 30 50 81 84
117 l61 62 0 68 c0 37 -6 82 -14 101 -14 32 -16 33 -58 28 -42 -4 -47 -2 -114
54 -76 64 -93 68 -174 48 -39 -10 -48 -9 -79 10 -27 17 -43 21 -72 15 -34 -6
-39 -4 -78 38 -29 31 -57 50 -93 62 -52 17 -53 17 -83 -4 l-30 -22 -40 32
c-54 43 -74 80 -100 188 -25 105 -33 114 -149 172 l-64 32 -79 -12 c-93 -13
-88 -16 -171 88 l-50 64 16 52 c9 29 27 78 40 110 l24 57 64 4 c78 5 232 43
320 79 35 14 66 22 70 18 41 -47 73 -350 49 -472 -4 -25 -7 -47 -5 -48 10 -11
167 184 255 315 112 169 195 361 207 479 l6 53 89 66 c342 256 597 658 678
1070 21 111 46 394 37 419 -5 13 -24 16 -114 16 -360 -1 -703 -115 -1016 -337
-101 -72 -325 -294 -392 -389 l-50 -70 -72 -12 c-138 -22 -339 -115 -513 -237
-85 -60 -274 -215 -268 -220 2 -2 39 1 83 7 117 14 270 0 400 -37 l55 -16 -19
-37 c-43 -86 -113 -375 -96 -402 6 -10 -12 -15 -172 -54 -111 -28 -113 -28
-343 -68 -105 -17 -168 -21 -390 -22 -273 -1 -320 3 -320 30 0 8 14 47 30 86
17 38 30 74 30 78 0 5 -25 21 -55 35 -44 22 -62 26 -95 20 -30 -5 -47 -3 -66
10 -15 10 -38 15 -55 13 -16 -3 -29 -3 -29 -1 0 2 11 21 25 41 18 26 25 50 25
82 0 39 5 51 35 80 20 19 35 44 35 57 0 12 9 27 20 33 27 14 25 24 -5 38 -32
15 -100 16 -125 2 -11 -6 -35 -41 -55 -79 -20 -38 -45 -77 -56 -87 -19 -17
-21 -16 -57 19 -21 20 -47 37 -58 37 -28 0 -47 23 -83 100 -36 76 -38 105 -12
186 11 32 29 95 41 139 26 92 41 126 73 156 28 26 99 63 154 79 37 12 48 10
97 -10 44 -17 59 -20 70 -11 23 19 197 -12 215 -39 10 -14 24 -20 52 -20 35 0
40 -3 54 -36 8 -20 15 -66 15 -103 0 -36 3 -76 6 -89 7 -24 58 -57 74 -47 22
14 22 97 -1 205 l-22 110 27 29 c34 35 179 141 193 141 23 0 103 42 111 58 5
9 12 48 15 86 6 68 15 93 24 69 9 -26 34 -11 83 51 45 57 58 67 130 96 69 28
84 39 115 82 30 41 50 57 120 89 112 53 187 54 95 1 -27 -15 -40 -30 -40 -43
0 -16 4 -19 18 -14 9 3 64 23 122 42 99 34 139 60 140 91 0 25 -31 25 -59 -2
-30 -29 -39 -30 -93 -16 -44 13 -62 40 -53 80 11 50 48 80 99 80 39 0 53 7
113 55 79 64 90 56 48 -37 -15 -32 -24 -65 -22 -72 4 -9 29 -15 74 -18 52 -2
76 -9 97 -26 41 -31 54 -28 66 20 16 58 2 84 -52 98 -73 18 -91 29 -83 48 4 9
17 43 29 74 21 57 21 58 1 76 -11 11 -51 36 -90 56 -38 21 -74 42 -80 47 -5 5
-10 35 -10 67 0 48 -6 65 -33 105 -19 27 -41 47 -51 47 -10 0 -31 -18 -46 -40
-15 -22 -33 -40 -41 -40 -7 0 -20 21 -30 48 -10 26 -24 57 -32 69 -19 31 -108
73 -154 73 l-38 0 0 -48 c0 -45 -3 -51 -40 -81 -44 -35 -47 -48 -25 -90 13
-27 13 -30 -13 -53 -15 -14 -48 -39 -73 -57 -41 -29 -47 -39 -58 -89 -7 -31
-19 -67 -27 -79 -28 -45 -72 -20 -88 50 -5 23 0 38 29 77 37 50 38 70 7 70
-22 0 -144 62 -188 95 -44 33 -46 82 -8 140 46 71 115 108 270 145 22 5 68 28
102 49 51 34 62 46 68 76 5 29 2 41 -15 59 -21 23 -21 24 -5 59 10 21 36 48
61 64 23 15 43 33 43 40 0 7 -3 13 -6 13 -17 0 -106 -71 -152 -121 -35 -39
-61 -59 -76 -59 -12 0 -56 12 -97 26 -53 18 -85 23 -113 19 -26 -4 -46 -1 -62
10 -32 21 -30 34 6 46 40 14 38 35 -5 60 -20 12 -35 29 -35 40 0 23 -14 24
-70 4 -23 -8 -45 -15 -47 -15 -3 0 20 23 51 51 30 27 58 59 61 71 8 24 70 52
220 101 257 83 559 142 825 161 116 8 520 -3 635 -18z m-2252 -568 c-30 -58
-49 -80 -93 -110 -38 -26 -66 -57 -92 -100 -24 -40 -61 -82 -100 -113 -79 -64
-102 -98 -123 -184 -15 -64 -22 -75 -93 -148 -188 -194 -261 -303 -323 -482
-32 -94 -34 -115 -15 -150 11 -21 9 -41 -20 -155 -19 -72 -34 -154 -34 -182 0
-28 -7 -68 -15 -88 -13 -31 -14 -50 -4 -119 6 -45 14 -109 17 -142 12 -102 25
-45 29 124 4 197 18 310 39 331 15 14 16 11 8 -35 -14 -86 4 -308 30 -367 20
-48 21 -147 0 -218 -29 -102 -29 -106 5 -149 17 -21 31 -46 31 -54 0 -8 18
-29 39 -46 21 -17 42 -42 45 -56 4 -14 12 -25 19 -25 6 -1 30 -23 52 -50 42
-52 48 -55 137 -65 55 -7 57 -8 110 -75 43 -56 61 -71 93 -79 64 -16 151 -77
164 -113 6 -17 11 -32 11 -34 0 -8 -176 59 -245 93 -109 56 -193 119 -300 228
-171 173 -281 327 -375 520 -108 221 -144 380 -144 620 0 248 12 288 147 490
240 359 571 693 927 935 57 38 105 70 107 70 2 0 -13 -32 -34 -72z m4383 -569
c0 -21 -2 -39 -3 -39 -1 0 -36 27 -77 60 -45 36 -84 76 -96 100 -25 49 -25 49
2 42 18 -4 20 -2 15 18 -4 17 19 -1 77 -59 77 -77 83 -86 82 -122z m-283 -95
c26 -9 47 -20 47 -25 0 -16 64 -49 95 -49 35 0 65 -23 85 -64 8 -16 38 -44 65
-62 28 -17 61 -44 74 -58 27 -29 51 -34 51 -10 0 28 -22 58 -83 116 l-61 57
23 18 c22 18 23 18 100 -59 78 -78 108 -96 98 -58 -6 23 -6 23 25 11 13 -5 48
-44 78 -86 40 -59 53 -87 55 -119 1 -22 4 -48 6 -56 5 -20 -56 -26 -87 -9 -30
16 -50 7 -58 -27 -6 -21 0 -39 23 -76 17 -27 31 -51 31 -52 0 -12 -93 4 -109
18 -20 18 -48 18 -93 1 -11 -4 -23 1 -35 14 -9 12 -23 21 -30 21 -12 0 -17 11
-28 68 -9 42 -90 108 -111 91 -8 -6 -14 -22 -14 -34 0 -18 -9 -26 -35 -35 -20
-6 -48 -22 -63 -34 -15 -13 -43 -28 -63 -35 -35 -11 -49 -29 -78 -103 -13 -35
-69 -48 -106 -24 -21 14 -23 20 -15 36 6 11 25 23 43 28 24 6 33 15 35 33 2
13 7 35 13 49 8 21 5 37 -15 80 -37 84 -40 107 -16 122 25 16 25 33 0 68 -31
43 -19 80 26 80 36 0 55 20 47 51 -7 25 -2 24 53 -11 26 -16 77 -39 113 -51
36 -12 78 -28 93 -36 37 -18 62 -67 55 -110 -5 -31 -3 -35 28 -50 44 -21 52
-12 27 29 -13 21 -18 44 -15 63 3 22 -1 36 -16 49 -12 11 -21 30 -21 43 0 19
-10 28 -42 43 -24 11 -49 20 -56 20 -21 0 -157 69 -181 91 -21 20 -29 49 -13
49 5 0 29 -7 55 -16z m-1370 -787 c33 -17 76 -50 106 -82 160 -176 110 -451
-102 -555 -117 -57 -247 -47 -354 26 -101 70 -155 170 -155 293 0 153 78 268
221 328 80 34 203 29 284 -10z m-4003 -524 c0 -10 -4 -34 -9 -53 -6 -19 -15
-54 -21 -77 -10 -42 -12 -43 -52 -43 -37 0 -40 2 -34 23 3 12 13 55 23 95 l17
72 38 0 c30 0 38 -4 38 -17z m140 -5 c0 -7 -8 -51 -17 -97 l-18 -83 -58 5
c-32 3 -61 8 -64 11 -5 5 24 153 34 169 8 13 123 8 123 -5z m-189 -183 c3 -2
-2 -45 -10 -95 l-15 -90 -43 0 c-40 0 -43 2 -39 23 3 12 10 49 16 82 6 33 13
66 15 73 4 11 66 18 76 7z m149 -12 c0 -5 -7 -46 -15 -93 -8 -47 -15 -86 -15
-87 0 -2 -30 -3 -66 -3 l-66 0 7 48 c4 26 11 68 17 95 l10 47 64 0 c35 0 64
-3 64 -7z m106 -3 c17 0 30 -12 49 -43 21 -37 24 -51 19 -91 -4 -25 -11 -49
-16 -52 -5 -4 -47 -3 -92 1 l-82 6 17 92 c9 51 17 94 18 96 1 2 15 1 32 -3 17
-3 42 -6 55 -6z m3219 -17 c14 -13 16 -29 12 -74 -7 -77 -45 -144 -136 -241
-100 -107 -473 -418 -501 -418 -26 0 -20 26 10 49 429 325 617 528 580 625
-24 65 -139 22 -269 -100 -82 -77 -193 -207 -319 -373 -41 -53 -77 -97 -82
-99 -4 -2 -10 4 -13 12 -7 18 78 130 257 338 153 179 249 259 346 289 45 13
98 10 115 -8z m-3507 -178 c1 -1 -3 -44 -9 -94 l-12 -92 -36 3 -36 3 1 50 c0
28 4 71 8 97 l7 47 37 -6 c20 -3 38 -7 40 -8z m145 -6 c2 -2 -1 -46 -7 -97
l-10 -92 -65 6 c-36 4 -67 7 -67 8 -3 2 17 162 22 175 3 10 19 12 64 9 33 -2
61 -6 63 -9z m193 -66 c-4 -38 -9 -80 -12 -95 l-6 -28 -90 0 -90 0 6 38 c3 20
8 63 12 95 l6 57 90 0 90 0 -6 -67z m99 59 c30 -21 134 -164 129 -177 -5 -12
-25 -15 -93 -15 -47 0 -97 3 -110 7 -22 6 -23 8 -16 82 9 107 11 111 48 111
18 0 37 -4 42 -8z m-462 -274 c-3 -51 -8 -96 -12 -99 -3 -4 -23 -4 -45 -1 -36
4 -38 6 -32 34 3 17 6 59 6 94 l0 64 44 0 43 0 -4 -92z m153 66 c-3 -9 -6 -51
-6 -95 l0 -79 -71 0 -72 0 6 68 c4 37 7 79 7 95 0 27 0 27 71 27 61 0 70 -2
65 -16z m193 1 c2 -2 0 -45 -4 -94 l-7 -91 -67 0 c-102 0 -111 5 -111 54 0 22
3 65 7 95 l6 53 86 -7 c47 -4 88 -9 90 -10z m238 -91 c-4 -54 -8 -98 -9 -99
-2 -1 -51 0 -110 3 l-108 4 0 94 0 94 117 0 116 0 -6 -96z m107 38 c34 -31 84
-76 111 -100 l50 -42 -127 0 -128 0 0 84 c0 89 5 116 23 116 6 0 38 -26 71
-58z m-694 -227 l0 -95 -45 0 -45 0 0 95 0 95 45 0 45 0 0 -95z m103 89 l37
-7 0 -93 0 -94 -42 0 c-88 0 -88 0 -88 106 l0 94 28 0 c15 0 44 -3 65 -6z
m237 -105 l0 -101 -31 6 c-17 3 -58 6 -90 6 l-59 0 0 95 0 95 90 0 90 0 0
-101z m146 91 l94 0 0 -95 0 -96 -112 3 -113 3 -3 84 c-3 95 1 116 24 107 9
-3 58 -6 110 -6z m350 -6 l29 -5 -2 -92 c-1 -79 -4 -93 -19 -96 -10 -2 -69 0
-131 4 l-113 7 0 94 0 94 104 0 c57 0 116 -3 132 -6z m149 -55 c50 -25 113
-54 141 -63 45 -15 52 -21 56 -46 l5 -30 -154 0 -153 0 0 96 c0 53 3 94 8 92
4 -2 48 -24 97 -49z m1629 -21 c-4 -7 -30 -39 -58 -70 l-50 -58 -88 0 -88 0 0
33 0 33 143 36 c78 19 143 36 145 37 2 0 0 -5 -4 -11z m-2619 -110 c1 -1 5
-45 8 -97 l5 -93 -40 5 c-22 3 -41 7 -43 9 -1 1 -5 45 -8 97 l-5 93 40 -5 c22
-3 41 -7 43 -9z m149 -6 c2 -4 6 -48 7 -97 l2 -90 -64 3 c-35 2 -65 5 -65 5
-1 1 -5 44 -9 95 l-7 92 65 0 c36 0 68 -4 71 -8z m193 -6 c0 0 4 -43 8 -93 l8
-93 -90 0 -90 0 -7 53 c-3 28 -6 72 -6 97 l0 45 87 -4 c49 -1 89 -4 90 -5z
m240 -9 c2 -3 7 -46 10 -96 l6 -91 -55 0 c-30 0 -83 3 -117 6 l-61 7 0 95 0
95 106 -6 c59 -3 108 -8 111 -10z m291 -94 l3 -93 -130 0 c-108 0 -130 3 -135
16 -3 9 -6 51 -6 95 l0 80 133 -3 132 -3 3 -92z m210 90 l112 -6 0 -95 0 -94
-144 4 c-80 2 -148 6 -152 10 -3 4 -9 48 -12 98 l-5 90 44 0 c24 0 95 -3 157
-7z m462 -98 l0 -95 -164 0 c-190 0 -176 -9 -176 118 l0 72 170 0 170 0 0 -95z
m378 -8 l4 -98 -179 7 c-98 4 -180 8 -182 11 -3 2 -7 44 -9 93 l-4 90 183 -2
184 -3 3 -98z m388 89 c1 0 4 -43 6 -94 l4 -92 -190 2 -191 3 -3 96 -3 97 188
-5 c103 -3 189 -6 189 -7z m418 -33 c-2 -31 -11 -45 -66 -94 l-63 -58 -88 -1
-89 0 87 95 87 95 67 0 66 0 -1 -37z m-2710 -180 c4 -32 9 -75 12 -95 l6 -38
-40 0 c-46 0 -47 2 -58 118 l-7 72 41 0 40 0 6 -57z m96 47 l48 0 6 -77 c4
-43 10 -86 12 -95 5 -16 -2 -18 -53 -18 -32 0 -63 4 -69 8 -11 7 -34 179 -25
188 3 2 11 2 19 -1 7 -3 35 -5 62 -5z m237 -13 c7 -7 26 -178 20 -183 -2 -2
-42 -1 -90 2 l-85 7 -6 56 c-4 31 -9 74 -12 95 l-6 39 86 -5 c48 -3 90 -8 93
-11z m247 -29 c3 -18 8 -61 11 -95 l6 -63 -109 0 c-84 0 -111 3 -115 14 -3 7
-9 50 -12 95 l-8 81 111 0 111 0 5 -32z m282 18 c1 0 4 -43 8 -95 l6 -94 -131
6 c-72 3 -132 7 -134 9 -1 2 -6 45 -10 96 l-7 93 133 -7 c74 -4 134 -7 135 -8z
m318 -28 c3 -18 7 -61 9 -95 l3 -63 -147 0 c-81 0 -150 3 -152 8 -3 4 -8 46
-12 95 l-7 87 151 0 150 0 5 -32z m346 15 c3 -3 7 -45 9 -95 l3 -91 -162 6
c-90 4 -165 8 -166 10 -2 2 -7 45 -11 96 l-6 93 164 -7 c90 -4 166 -10 169
-12z m380 -35 c0 -24 3 -67 6 -95 l7 -53 -180 0 -180 0 -7 46 c-3 26 -6 69 -6
95 l0 49 180 0 180 0 0 -42z m380 36 c0 -3 -35 -45 -77 -95 l-78 -89 -102 0
-103 0 0 73 c0 39 -3 82 -6 95 l-6 22 186 0 c102 0 186 -3 186 -6z m189 -89
c-108 -107 -141 -121 -153 -64 -12 62 -7 82 31 121 l37 38 91 0 90 0 -96 -95z
m239 -3 l3 -92 -123 0 c-69 0 -118 4 -112 9 109 99 209 181 218 178 7 -2 12
-38 14 -95z m-2702 -72 c8 0 14 -11 14 -27 1 -16 7 -57 15 -93 7 -36 12 -66
11 -68 -2 -1 -20 1 -42 6 -37 8 -39 9 -50 67 -27 141 -28 128 7 121 17 -3 38
-6 45 -6z m168 -89 c9 -49 16 -92 16 -95 0 -3 -29 -6 -64 -6 l-64 0 -16 88
c-9 48 -16 90 -16 95 0 4 29 7 64 7 l63 0 17 -89z m193 -1 c18 -117 21 -110
-46 -110 -32 0 -72 3 -88 6 -29 6 -30 9 -41 82 -7 43 -12 83 -12 90 0 10 21
12 88 10 l87 -3 12 -75z m168 71 l59 -6 13 -85 c7 -47 12 -88 13 -91 0 -6
-212 1 -219 7 -5 4 -30 141 -30 167 -1 14 8 17 52 16 28 -1 79 -4 112 -8z
m339 -23 c3 -13 8 -50 11 -82 4 -33 9 -65 12 -73 4 -11 -18 -13 -128 -11
l-134 3 -12 70 c-21 126 -33 115 117 115 126 0 130 -1 134 -22z m313 8 c2 -2
23 -180 20 -182 -1 -1 -68 1 -149 4 l-146 5 -6 31 c-3 17 -8 59 -12 94 l-7 63
149 -7 c82 -4 150 -7 151 -8z m353 -30 c0 -18 3 -61 6 -95 l7 -62 -164 3 -164
3 -6 50 c-4 28 -9 69 -12 93 l-5 42 169 0 169 0 0 -34z m373 -33 c4 -38 7 -80
7 -95 l0 -28 -174 0 -174 0 -6 28 c-2 15 -8 57 -11 95 l-7 67 180 0 179 0 6
-67z m175 40 c-78 -94 -142 -162 -147 -157 -3 3 -8 44 -11 90 l-5 84 89 0 c84
0 88 -1 74 -17z m212 -5 c0 -14 -25 -47 -67 -90 l-67 -68 -81 0 -80 0 90 90
90 90 57 0 c53 0 58 -2 58 -22z m407 -63 c-3 -47 -9 -90 -12 -95 -4 -6 -79
-10 -185 -10 l-179 0 -7 37 c-7 35 -5 39 55 95 l62 58 136 0 136 0 -6 -85z
m-2511 -89 c1 0 10 -40 21 -88 l20 -88 -63 0 -63 0 -11 43 c-6 23 -15 58 -21
77 -18 70 -16 73 54 65 34 -4 62 -8 63 -9z m210 -91 l20 -95 -65 0 c-105 0
-107 2 -126 83 -9 40 -19 80 -22 90 -4 15 5 17 85 17 l89 0 19 -95z m235 -10
c10 -49 19 -90 19 -90 0 0 -48 2 -107 3 -60 2 -109 5 -111 6 -4 5 -40 175 -37
178 2 2 52 1 111 -2 l107 -5 18 -90z m253 84 c5 -5 36 -153 36 -172 0 -4 -57
-6 -127 -5 l-128 3 -17 75 c-27 123 -37 112 106 108 69 -2 127 -6 130 -9z
m320 -21 c8 -35 26 -162 23 -163 -1 -1 -67 1 -147 4 l-145 6 -16 88 -16 87
148 0 c146 0 149 0 153 -22z m348 -38 c3 -30 9 -72 12 -93 l6 -37 -162 2 -163
3 -11 65 c-7 36 -12 77 -13 93 l-1 27 163 -2 162 -3 7 -55z m357 44 c2 -2 -30
-41 -70 -88 l-74 -84 -91 -1 -91 -1 -7 53 c-4 28 -9 70 -12 93 l-6 41 174 -5
c95 -2 175 -6 177 -8z m135 -76 c-47 -46 -90 -84 -94 -86 -5 -2 -10 23 -12 55
-3 46 0 64 16 86 19 26 24 27 99 27 l78 0 -87 -82z m257 80 c0 -2 4 -42 7 -90
l7 -88 -155 0 c-178 0 -174 -13 -35 109 75 66 83 71 128 71 26 0 47 -1 48 -2z
m377 -90 l-3 -93 -171 -3 -171 -2 -6 52 c-4 29 -7 72 -7 96 l0 42 180 0 181 0
-3 -92z m-2484 -76 c39 -7 39 -7 62 -87 13 -44 24 -83 24 -87 0 -13 -95 -9
-112 5 -15 11 -58 132 -58 163 0 15 23 17 84 6z m236 -44 c6 -24 18 -65 26
-92 8 -27 13 -50 11 -51 -1 -1 -40 1 -86 4 l-84 6 -23 79 c-13 44 -24 84 -24
88 0 4 38 8 85 8 l84 0 11 -42z m221 24 c3 -4 15 -44 27 -90 l20 -83 -107 3
-106 3 -22 75 c-33 113 -39 106 79 102 57 -2 106 -7 109 -10z m293 -85 c10
-48 17 -90 14 -92 -3 -3 -60 -3 -126 1 l-120 7 -15 56 c-9 31 -18 71 -22 89
l-7 33 128 -3 129 -3 19 -88z m306 -9 l17 -88 -144 0 -143 0 -6 28 c-3 15 -10
43 -14 62 -4 19 -11 47 -14 63 l-7 28 148 -3 147 -3 16 -87z m330 20 c6 -40
13 -79 16 -87 3 -8 0 -17 -5 -20 -5 -3 -77 -5 -159 -3 l-151 3 -10 49 c-6 27
-14 68 -17 90 l-7 40 161 0 160 0 12 -72z m250 -28 l-95 -89 -58 -1 -59 0 83
90 82 90 71 0 71 -1 -95 -89z m490 61 c0 -15 3 -56 6 -90 l7 -61 -182 0 c-99
0 -181 3 -181 8 0 4 -5 38 -10 76 -8 50 -7 72 1 82 9 11 50 14 185 14 l174 0
0 -29z m360 -30 c0 -32 3 -73 6 -90 l7 -31 -172 0 c-129 0 -173 3 -175 13 -3
6 -7 47 -10 90 l-6 77 175 0 175 0 0 -59z m-2365 -178 c15 -43 29 -84 32 -90
3 -10 -11 -13 -55 -13 l-60 0 -31 81 c-17 44 -31 85 -31 90 0 5 27 9 59 9 l59
0 27 -77z m188 -20 c15 -48 25 -88 23 -91 -3 -2 -40 -1 -83 3 l-79 7 -27 76
c-15 43 -27 82 -27 87 0 6 32 9 83 7 l82 -3 28 -86z m177 78 c20 -6 28 -20 47
-81 13 -41 23 -79 23 -83 0 -4 -46 -6 -102 -5 l-101 3 -23 67 c-12 36 -25 76
-29 87 -6 20 -3 21 77 20 46 -1 94 -4 108 -8z m312 -88 l24 -88 -86 -3 c-47
-1 -103 1 -124 5 -39 8 -40 10 -63 83 -12 41 -23 78 -23 83 0 4 56 7 124 7
l124 0 24 -87z m274 75 c5 -5 21 -63 38 -140 l6 -28 -139 0 -140 0 -11 43 c-6
23 -18 64 -26 91 l-14 49 140 -5 c77 -2 142 -7 146 -10z m293 -15 c-8 -10 -41
-48 -74 -85 -59 -67 -60 -68 -110 -68 l-52 0 -16 75 c-10 42 -17 80 -17 85 0
6 56 10 141 10 133 0 141 -1 128 -17z m410 -58 c6 -42 11 -82 11 -90 0 -13
-27 -15 -165 -15 l-164 0 -7 35 c-3 20 -5 37 -3 38 2 2 30 26 62 55 l59 52 98
0 98 0 11 -75z m365 53 c3 -13 8 -53 11 -90 l7 -68 -176 0 c-197 0 -179 -8
-191 90 -4 30 -9 63 -11 73 -5 16 8 17 175 17 179 0 181 0 185 -22z m374 -51
c6 -34 15 -72 18 -84 l6 -23 -186 0 -186 0 0 29 c0 15 -3 55 -6 87 l-6 59 174
-3 174 -3 12 -62z m-2365 -96 c11 -4 33 -40 52 -86 37 -90 36 -92 -41 -80 -43
6 -45 8 -73 70 -49 107 -49 105 1 104 24 0 51 -4 61 -8z m220 -68 c14 -38 29
-76 33 -85 5 -16 -2 -18 -73 -18 l-79 0 -36 85 -36 85 82 0 83 0 26 -67z m198
48 c3 -3 16 -35 29 -71 12 -36 25 -71 27 -77 4 -10 -19 -13 -95 -13 l-101 0
-30 80 c-17 43 -31 84 -31 90 0 12 190 3 201 -9z m283 -69 c14 -42 26 -82 26
-87 0 -6 -43 -8 -117 -5 l-117 5 -28 75 c-15 41 -28 78 -28 83 0 4 54 7 119 7
l119 0 26 -78z m217 68 l57 0 16 -62 c9 -35 19 -73 22 -85 l6 -23 -135 0 -136
0 -26 81 c-14 44 -25 85 -25 91 0 8 25 9 83 5 45 -4 107 -7 138 -7z m199 -67
l-65 -67 76 67 c71 62 81 67 122 67 l46 0 17 -77 c9 -43 19 -81 21 -86 3 -4
-64 -6 -148 -5 l-153 3 -13 45 -13 44 37 38 c33 34 42 38 87 38 l50 0 -64 -67z
m541 -18 c9 -44 14 -84 11 -88 -3 -6 -311 1 -319 7 -1 1 -11 39 -21 84 l-20
82 167 -2 166 -3 16 -80z m351 66 c3 -3 9 -41 13 -83 l7 -78 -170 0 -170 0
-12 68 c-6 37 -14 77 -17 90 l-5 23 173 -7 c96 -4 177 -9 181 -13z m382 -13
c3 -13 6 -51 6 -85 l0 -63 -174 0 -174 0 -6 28 c-3 15 -8 53 -12 85 l-6 57
180 0 c178 0 180 0 186 -22z m-2256 -214 l42 -85 -57 3 -58 3 -43 83 -43 82
58 0 59 0 42 -86z m85 76 c31 0 57 -4 57 -10 0 -5 16 -42 35 -82 19 -40 33
-73 32 -73 -1 -1 -36 0 -78 3 l-76 4 -36 74 c-43 87 -45 99 -14 90 12 -3 48
-6 80 -6z m299 -85 l36 -85 -97 0 -98 0 -32 73 c-18 39 -35 78 -38 85 -4 9 19
12 94 12 l99 0 36 -85z m250 -8 c17 -43 29 -80 27 -81 -2 -2 -54 -1 -116 2
l-112 5 -31 73 c-16 40 -30 75 -30 79 0 3 52 4 116 3 l117 -3 29 -78z m277 11
c13 -40 26 -79 29 -86 3 -10 -24 -12 -128 -10 l-132 3 -23 60 c-12 33 -25 70
-29 83 l-7 22 133 0 134 0 23 -72z m291 55 c2 -2 14 -38 26 -79 l22 -74 -147
0 -147 0 -25 80 c-14 44 -24 82 -21 84 5 6 285 -5 292 -11z m345 -15 c35 -157
38 -148 -38 -148 -35 0 -105 3 -156 7 l-91 6 -15 51 c-8 28 -17 63 -21 79 l-6
27 161 0 c158 0 161 0 166 -22z m359 -30 c4 -29 9 -68 12 -85 l6 -33 -166 0
c-187 0 -163 -12 -186 90 -19 86 -31 80 159 80 l168 0 7 -52z m360 40 c3 -7 7
-46 10 -85 l5 -73 -173 0 -173 0 -7 63 c-4 34 -10 72 -13 85 l-5 22 176 0
c133 0 178 -3 180 -12z m123 -73 l52 -85 -75 0 c-71 0 -74 1 -74 24 0 12 -3
51 -6 85 l-7 61 29 0 c26 0 35 -10 81 -85z m-2302 -138 c22 -39 42 -76 44 -80
1 -4 -21 -7 -50 -5 l-53 3 -42 70 c-24 39 -44 73 -44 78 0 4 24 7 53 7 l52 0
40 -73z m173 -17 l43 -80 -74 0 -73 0 -42 74 c-23 40 -42 76 -42 80 0 3 33 6
73 6 l72 0 43 -80z m203 -2 c22 -44 39 -81 37 -82 -2 0 -43 0 -93 2 l-90 3
-43 80 -43 80 96 -2 96 -2 40 -79z m244 -10 l34 -78 -110 0 -109 0 -40 80 -41
81 116 -3 116 -3 34 -77z m268 9 c15 -41 27 -77 27 -80 0 -4 -56 -7 -124 -7
l-123 0 -32 75 c-17 41 -31 77 -31 80 0 3 57 5 128 5 l127 0 28 -73z m278 55
c4 -4 14 -33 23 -64 9 -32 19 -65 23 -73 5 -15 -9 -16 -135 -14 l-141 3 -29
77 c-16 43 -28 79 -27 81 6 6 280 -4 286 -10z m346 -72 l19 -80 -151 0 -152 0
-18 63 c-9 34 -20 70 -22 80 -5 16 7 17 150 17 l155 0 19 -80z m327 63 c2 -10
7 -38 11 -63 4 -25 9 -53 11 -62 5 -17 -7 -18 -155 -18 l-160 0 -10 38 c-5 20
-13 56 -19 80 l-10 42 163 0 c147 0 164 -2 169 -17z m360 -35 c3 -29 6 -65 6
-80 l0 -28 -164 0 -163 0 -12 69 c-6 39 -11 75 -11 80 0 7 57 11 169 11 l168
0 7 -52z m234 -28 l73 -80 -140 0 c-124 0 -140 2 -145 18 -4 15 -9 112 -7 135
1 4 34 7 74 7 l72 0 73 -80z m-2331 -135 c22 -33 42 -66 47 -72 5 -10 -5 -13
-42 -13 l-48 0 -52 74 c-29 41 -52 76 -52 78 0 2 25 1 54 -2 54 -5 55 -6 93
-65z m166 -12 c52 -88 51 -90 -40 -78 -53 6 -54 7 -104 81 l-50 74 74 0 74 0
46 -77z m196 -4 c23 -39 41 -73 41 -75 0 -2 -38 -4 -85 -4 l-85 0 -34 53 c-18
28 -38 62 -45 75 l-12 22 90 0 89 0 41 -71z m234 -4 c20 -42 37 -78 37 -80 0
-7 -92 -5 -160 3 l-54 7 -38 65 c-20 36 -37 68 -37 73 -1 4 48 7 107 7 l108 0
37 -75z m263 -11 l32 -74 -119 0 -119 0 -35 70 c-19 38 -35 73 -35 77 0 5 55
7 122 5 l123 -3 31 -75z m285 1 l26 -75 -132 0 -132 0 -28 63 c-15 34 -29 68
-32 75 -4 9 27 12 133 12 l139 0 26 -75z m299 33 c6 -24 15 -56 20 -72 6 -16
10 -33 10 -37 0 -10 -212 -12 -258 -3 -26 5 -33 14 -52 68 -13 33 -25 67 -27
74 -4 9 29 12 146 12 l150 0 11 -42z m319 27 c3 -4 30 -122 31 -138 0 -4 -69
-6 -152 -5 l-153 3 -17 60 c-27 98 -38 90 134 87 84 -2 155 -5 157 -7z m351
-32 c0 -21 3 -55 6 -75 l7 -38 -160 0 -160 0 -11 64 c-7 35 -12 68 -12 75 0 8
49 11 165 11 l165 0 0 -37z m330 22 c6 -8 14 -41 17 -75 l6 -60 -167 0 -166 0
0 29 c0 15 -3 49 -6 75 l-7 46 155 0 c124 0 158 -3 168 -15z m-2178 -187 c24
-35 47 -69 52 -76 6 -11 -5 -13 -60 -9 l-68 5 -48 66 c-26 36 -48 68 -48 71 0
3 29 5 64 5 l64 0 44 -62z m128 52 c23 0 34 -11 69 -67 l41 -68 -72 -3 c-39
-2 -77 -1 -83 2 -12 4 -105 131 -105 143 0 3 28 3 61 -1 34 -3 74 -6 89 -6z
m289 -72 c23 -39 39 -73 37 -75 -2 -2 -48 0 -102 4 l-97 8 -44 68 -43 67 104
0 103 0 42 -72z m247 1 c19 -38 34 -71 34 -74 0 -3 -50 -4 -112 -3 l-112 3
-38 65 c-21 36 -38 69 -38 73 0 5 52 7 116 6 l115 -2 35 -68z m272 9 c11 -29
23 -61 27 -70 7 -17 -3 -18 -119 -18 l-126 0 -35 70 -35 70 133 0 134 0 21
-52z m300 -20 c11 -40 20 -74 18 -76 -2 -1 -64 0 -139 4 -112 6 -136 10 -140
23 -2 9 -14 40 -26 69 l-21 52 144 0 143 0 21 -72z m308 12 c23 -98 33 -91
-128 -88 l-141 3 -17 50 c-9 28 -20 60 -24 73 l-8 23 153 -3 153 -3 12 -55z
m318 28 c3 -18 7 -52 11 -75 l5 -43 -150 0 -150 0 -6 28 c-3 15 -10 43 -15 62
-16 63 -22 60 146 60 l154 0 5 -32z m334 -45 l3 -73 -154 0 -154 0 -7 53 c-3
28 -6 62 -6 75 l0 23 158 -3 157 -3 3 -72z m240 21 c57 -38 82 -60 82 -74 0
-19 -7 -20 -155 -20 l-155 0 0 68 c0 38 3 72 7 76 4 4 37 6 73 5 61 -1 70 -5
148 -55z m-2311 -156 l54 -68 -60 0 -59 0 -56 64 c-31 35 -56 66 -56 70 0 4
28 6 62 4 l61 -3 54 -67z m139 49 c6 -7 28 -36 48 -64 l38 -53 -79 0 c-87 0
-74 -8 -158 104 l-30 39 85 -7 c47 -4 90 -13 96 -19z m240 -44 c57 -90 60 -86
-45 -81 l-91 5 -45 61 c-25 34 -45 64 -45 67 0 3 43 5 95 5 l94 0 37 -57z
m243 -13 l40 -70 -107 0 -107 0 -40 62 c-22 34 -41 65 -43 70 -2 4 46 8 106 8
l110 0 41 -70z m233 52 c3 -4 18 -33 32 -64 l25 -58 -119 0 -118 0 -36 65
c-20 36 -36 67 -36 68 0 5 246 -5 252 -11z m306 -54 c12 -35 22 -67 22 -72 0
-4 -57 -6 -127 -3 l-128 5 -27 59 c-15 32 -27 61 -28 66 0 4 60 7 133 7 l132
0 23 -62z m296 -3 c9 -35 16 -67 16 -70 0 -3 -61 -4 -137 -3 l-136 3 -23 68
-23 67 143 0 144 0 16 -65z m301 23 c3 -24 8 -56 11 -71 l6 -28 -143 3 -143 3
-12 40 c-6 22 -14 52 -18 68 l-6 27 149 0 149 0 7 -42z m315 -28 l0 -70 -144
0 -143 0 -7 46 c-3 26 -6 57 -6 70 l0 24 150 0 150 0 0 -70z m313 13 c-2 -32
-6 -64 -9 -70 -2 -10 -41 -13 -149 -13 l-145 0 0 63 c0 35 3 67 7 70 3 4 73 7
154 7 l148 0 -6 -57z m188 -4 c60 -34 106 -65 103 -70 -3 -5 -69 -9 -146 -9
l-141 0 7 53 c3 28 6 60 6 70 0 35 58 20 171 -44z m-2612 -70 l99 1 57 -65 57
-65 -54 0 c-52 0 -55 2 -113 60 -32 33 -61 57 -64 54 -3 -2 20 -29 50 -60 l54
-55 -44 5 c-37 4 -53 14 -103 63 -52 51 -76 85 -48 68 6 -4 55 -6 109 -6z
m222 -9 l56 0 47 -59 c25 -33 46 -61 46 -63 0 -2 -30 -2 -67 0 -74 4 -92 15
-156 96 -31 39 -31 39 -7 33 14 -4 50 -7 81 -7z m302 -65 l47 -65 -84 0 -84 0
-51 58 c-28 31 -51 60 -51 65 0 4 40 7 88 7 l88 0 47 -65z m218 7 c19 -31 36
-60 37 -64 2 -5 -41 -8 -95 -8 l-98 1 -42 58 c-24 32 -43 62 -43 65 0 4 46 6
103 5 l104 -1 34 -56z m250 -13 c16 -34 29 -62 27 -63 -2 -2 -52 -1 -111 2
l-108 4 -34 54 c-19 30 -35 57 -35 59 0 3 52 5 115 5 l115 0 31 -61z m265 -3
c13 -33 24 -61 24 -63 0 -2 -54 -3 -120 -3 l-120 0 -30 60 c-16 33 -30 62 -30
65 0 3 57 4 126 3 l126 -3 24 -59z m272 17 c6 -27 14 -56 17 -65 7 -17 -3 -18
-119 -18 l-127 0 -25 55 c-13 31 -24 60 -24 65 0 6 54 10 133 10 l134 0 11
-47z m286 10 c4 -21 9 -50 12 -65 l6 -28 -134 0 -134 0 -14 53 c-7 28 -15 58
-17 65 -4 9 27 12 135 12 l140 0 6 -37z m296 -28 l0 -65 -134 0 -133 0 -7 46
c-12 91 -23 84 134 84 l140 0 0 -65z m300 46 c0 -10 -3 -39 -6 -65 l-7 -46
-132 0 -133 0 -4 61 c-1 33 -1 63 1 65 2 2 67 4 143 4 128 0 138 -1 138 -19z
m296 2 c-3 -10 -10 -39 -17 -65 l-11 -48 -133 0 -132 0 4 53 c7 82 -3 77 153
77 130 0 141 -1 136 -17z m160 -25 c78 -35 94 -47 92 -63 -3 -19 -12 -20 -134
-23 l-131 -3 15 66 c20 81 27 82 158 23z m-2417 -149 l54 -59 -64 0 -64 0 -65
60 -65 59 75 -1 75 0 54 -59z m168 14 c63 -76 64 -73 -24 -72 l-78 0 -54 60
-53 59 84 0 85 0 40 -47z m120 37 l61 0 34 -47 c19 -27 37 -52 40 -58 4 -6
-27 -9 -87 -7 l-93 3 -39 47 c-62 74 -62 76 -17 69 21 -4 67 -7 101 -7z m328
-53 c16 -28 31 -55 33 -59 2 -5 -42 -8 -97 -8 l-100 0 -41 55 c-22 30 -40 57
-40 60 0 3 48 5 108 5 l107 0 30 -53z m247 -4 l25 -58 -105 -3 c-117 -3 -114
-5 -157 71 l-27 47 120 0 119 0 25 -57z m253 17 c31 -89 41 -80 -93 -80 l-119
0 -26 60 -26 61 126 -3 126 -3 12 -35z m274 -10 c6 -28 11 -55 11 -60 0 -6
-52 -10 -124 -10 l-124 0 -11 44 c-6 24 -13 51 -17 60 -5 14 8 16 124 16 l130
0 11 -50z m271 26 c0 -12 3 -38 6 -58 l7 -38 -130 0 -130 0 -7 46 c-11 81 -20
75 124 73 125 -2 130 -3 130 -23z m282 -6 c-1 -14 -5 -40 -8 -57 l-5 -33 -124
0 -125 0 0 58 0 57 133 0 132 0 -3 -25z m273 -6 c-16 -87 -10 -84 -145 -84
-135 0 -128 -5 -114 83 l7 37 129 0 130 0 -7 -36z m275 27 c0 -4 -10 -31 -21
-60 l-22 -51 -118 0 c-66 0 -119 3 -119 6 0 3 7 30 16 60 l15 54 125 0 c68 0
124 -4 124 -9z m201 -3 c22 -6 39 -15 39 -20 0 -5 -9 -27 -20 -48 l-20 -40
-115 0 -114 0 16 38 c8 20 19 47 24 60 8 20 15 22 80 22 39 0 89 -5 110 -12z
m-2399 -168 c26 -29 48 -53 48 -54 0 0 -33 1 -73 4 -71 5 -76 7 -125 52 -29
25 -52 49 -52 52 0 4 35 5 77 2 l77 -5 48 -51z m191 1 c20 -27 37 -52 37 -55
0 -4 -36 -6 -80 -5 l-80 2 -45 48 c-25 26 -45 51 -45 54 0 3 39 5 88 5 l87 -1
38 -48z m212 -3 l35 -53 -90 -3 -91 -3 -27 32 c-15 18 -35 43 -45 56 l-18 23
100 0 100 0 36 -52z m228 -3 l27 -55 -99 0 -99 0 -36 50 c-20 28 -36 52 -36
55 0 3 49 5 108 5 l108 0 27 -55z m201 48 c19 -4 29 -16 40 -51 9 -25 16 -47
16 -49 0 -2 -48 -2 -107 -1 l-107 3 -23 40 c-36 64 -34 66 67 64 49 -1 100 -4
114 -6z m1316 2 c0 -3 -11 -28 -25 -55 l-25 -50 -110 0 c-61 0 -110 1 -110 3
0 2 7 24 16 50 l16 46 56 3 c146 8 182 8 182 3z m234 -7 c-4 -7 -20 -32 -36
-55 l-29 -43 -100 0 c-56 0 -99 3 -97 8 2 4 11 28 22 55 l19 47 114 0 c89 0
113 -3 107 -12z m195 -33 c-18 -25 -38 -50 -45 -56 -7 -5 -52 -8 -102 -7 l-90
3 31 53 32 52 103 0 103 0 -32 -45z m213 18 c-11 -16 -33 -41 -50 -56 -28 -27
-33 -28 -111 -25 l-83 3 42 53 42 52 90 0 89 0 -19 -27z m153 -22 l-50 -49
-77 -4 -77 -3 22 25 c74 86 64 80 151 80 l81 0 -50 -49z m-1825 27 c0 -7 3
-30 6 -51 l7 -38 -113 3 -112 3 -18 48 -18 47 124 0 c92 0 124 -3 124 -12z
m260 -38 l0 -50 -114 0 c-126 0 -117 -5 -131 68 l-7 32 126 0 126 0 0 -50z
m254 13 c-10 -66 -4 -63 -129 -63 l-115 0 0 50 0 50 124 0 125 0 -5 -37z m248
-13 l-16 -50 -114 0 -115 0 7 38 c3 20 6 43 6 50 0 9 32 12 124 12 l124 0 -16
-50z m1128 -58 c-1 -4 -21 -22 -46 -40 -25 -19 -43 -36 -40 -39 3 -3 31 15 62
41 48 39 63 46 100 46 24 0 44 -2 44 -4 0 -2 -28 -24 -63 -49 l-63 -45 -108
-1 c-60 0 -107 1 -105 3 2 2 27 23 54 47 46 40 56 44 108 46 31 1 57 -1 57 -5z
m-2715 -52 l49 -50 -74 0 -75 0 -55 50 -55 49 80 1 81 0 49 -50z m189 6 c20
-24 36 -47 36 -50 0 -3 -35 -6 -78 -6 l-78 0 -49 50 -49 50 91 0 91 0 36 -44z
m217 -10 l29 -47 -96 3 -96 3 -36 49 -35 48 102 -5 102 -5 30 -46z m1609 49
c0 -3 -15 -26 -32 -50 l-33 -44 -92 -1 c-51 0 -93 2 -93 6 0 3 10 23 22 44 23
39 23 39 93 43 38 1 85 4 103 5 17 1 32 0 32 -3z m198 -4 c-1 -5 -20 -27 -41
-50 l-38 -42 -84 3 -84 3 36 48 35 47 90 0 c49 0 88 -4 86 -9z m147 -41 l-49
-50 -79 0 -78 0 43 50 43 50 85 0 84 0 -49 -50z m-1734 -8 l18 -43 -100 3 -99
3 -26 43 -26 43 108 -3 107 -3 18 -43z m219 41 c0 -5 4 -25 9 -45 l9 -38 -103
0 -103 0 -16 40 c-9 22 -16 43 -16 45 0 8 220 6 220 -2z m240 -44 l0 -50 -101
5 c-56 3 -103 7 -105 8 -1 2 -7 23 -12 46 l-10 42 114 0 114 0 0 -51z m235 14
c-4 -21 -8 -43 -10 -50 -3 -8 -35 -12 -103 -12 l-100 0 -6 31 c-14 71 -18 68
109 68 l116 0 -6 -37z m228 -8 l-15 -45 -105 0 c-104 0 -105 0 -99 23 3 12 6
32 6 45 0 22 2 22 114 22 l115 0 -16 -45z m223 3 l-26 -43 -99 -3 -100 -3 15
46 16 45 110 0 109 0 -25 -42z m-902 -76 c2 -4 7 -23 11 -42 l6 -35 -90 0 -89
0 -21 43 -21 42 100 0 c54 0 101 -3 104 -8z m218 -33 c2 -22 2 -42 -1 -45 -2
-2 -44 -4 -92 -4 l-88 0 -10 38 c-6 20 -11 40 -11 45 0 4 45 7 99 7 l99 0 4
-41z m213 4 c-4 -21 -9 -41 -11 -45 -3 -5 -45 -8 -95 -8 l-89 0 0 45 0 45 101
0 101 0 -7 -37z m207 -3 l-17 -40 -93 -5 -93 -4 7 37 c4 20 9 40 11 45 2 4 49
7 103 7 l99 0 -17 -40z m-892 -151 l140 1 15 -30 16 -30 -64 0 c-55 0 -67 3
-87 25 -27 29 -42 25 -15 -5 18 -20 18 -20 -39 -20 -47 0 -63 5 -92 28 -30 24
-49 52 -24 37 5 -3 73 -6 150 -6z"/>
<path d="M20840 7275 c-40 -15 -87 -25 -122 -25 -49 0 -61 -4 -83 -27 -14 -15
-25 -31 -25 -35 0 -5 -15 -8 -33 -8 -36 0 -74 -21 -64 -37 3 -5 31 -16 63 -23
40 -10 60 -21 72 -39 9 -14 22 -30 30 -34 7 -5 10 -17 7 -27 -4 -14 7 -29 49
-60 74 -56 77 -67 25 -112 l-43 -37 17 -54 c23 -72 89 -172 129 -197 29 -18
151 -60 173 -60 4 0 5 31 3 70 -5 62 -3 71 16 83 18 13 19 17 8 42 -15 32 -5
45 35 45 24 0 93 65 93 87 0 8 28 26 63 42 105 47 111 81 12 67 -45 -7 -52 -3
-36 23 7 10 21 12 57 6 l49 -7 -34 34 c-19 18 -45 50 -58 71 -15 23 -41 46
-70 60 -37 17 -55 35 -81 79 -25 43 -43 60 -72 72 -68 27 -109 27 -180 1z"/>
<path d="M20517 7273 c-65 -2 -115 -7 -113 -12 3 -5 -19 -11 -50 -14 -64 -7
-84 -19 -77 -48 3 -11 -2 -28 -12 -39 -10 -11 -16 -23 -12 -26 8 -8 152 23
185 40 15 8 43 26 61 40 19 14 61 31 93 38 32 7 58 16 58 20 0 4 -3 7 -7 6 -5
-1 -61 -4 -126 -5z"/>
<path d="M19764 7177 c-71 -25 -120 -56 -91 -56 29 -1 19 -30 -22 -59 -28 -20
-37 -32 -30 -39 8 -8 7 -13 0 -17 -27 -17 -8 -26 38 -20 42 5 52 3 70 -15 22
-22 22 -22 49 -2 15 11 51 44 81 75 l55 55 -41 7 c-64 10 -69 17 -44 58 27 42
21 43 -65 13z"/>
<path d="M20122 7028 c-50 -23 -62 -33 -57 -46 19 -44 16 -53 -24 -97 -46 -50
-49 -61 -21 -70 26 -8 74 18 100 55 19 26 27 30 69 30 61 0 81 -20 81 -81 0
-39 -5 -48 -37 -76 l-38 -32 20 -38 c14 -27 35 -45 75 -65 66 -33 91 -37 68
-10 -36 42 -34 45 20 38 45 -6 52 -4 52 11 0 9 -12 34 -26 55 -15 21 -24 41
-20 45 3 4 24 -4 47 -16 37 -21 41 -22 64 -7 14 9 25 23 25 31 0 7 -27 37 -60
66 -34 29 -63 64 -67 78 -7 32 -30 59 -65 77 -15 8 -28 24 -30 36 -3 20 -9 23
-45 24 -24 1 -48 6 -55 12 -10 8 -30 3 -76 -20z"/>
<path d="M21560 6816 c-30 -8 -56 -9 -79 -3 -45 12 -62 -4 -35 -34 30 -33 69
-49 119 -49 87 0 134 48 83 84 -26 18 -27 18 -88 2z"/>
<path d="M22102 6598 c3 -41 5 -43 53 -61 28 -10 62 -32 77 -48 15 -16 35 -29
46 -29 10 0 27 -6 37 -14 16 -11 17 -17 7 -29 -10 -11 -9 -17 3 -27 8 -7 15
-21 15 -31 0 -12 7 -19 21 -19 14 0 25 -11 35 -36 l15 -36 20 26 c10 13 36 35
57 48 27 16 32 24 20 26 -9 2 -22 20 -29 39 -11 33 -13 35 -25 19 -12 -17 -13
-17 -23 2 -6 11 -58 43 -116 71 -58 28 -105 55 -105 59 0 5 -6 17 -14 27 -12
16 -16 17 -30 6 -13 -11 -16 -11 -16 1 0 15 -30 48 -44 48 -4 0 -6 -19 -4 -42z"/>
<path d="M22164 6447 c4 -19 0 -26 -19 -35 -34 -15 -31 -25 9 -45 27 -12 33
-21 29 -36 -7 -28 35 -48 66 -32 38 21 43 45 16 82 -14 18 -25 41 -25 51 0 11
-7 18 -19 18 -11 0 -23 5 -26 10 -3 6 -13 10 -22 10 -11 0 -14 -6 -9 -23z"/>
<path d="M19110 4620 c0 -5 -3 -15 -6 -23 -4 -12 3 -14 38 -10 36 4 57 -1 114
-29 38 -19 82 -38 97 -42 15 -3 33 -19 42 -36 8 -16 24 -34 35 -40 11 -6 20
-17 20 -25 0 -23 111 -37 144 -18 17 10 11 15 -55 48 -41 20 -92 54 -114 75
-29 27 -65 45 -130 67 -91 31 -185 47 -185 33z"/>
<path d="M19650 4376 c0 -6 7 -20 15 -30 27 -35 19 -48 -27 -45 -64 5 -59 -17
8 -31 44 -9 66 -9 100 0 42 12 107 10 149 -5 11 -4 0 10 -24 32 -33 28 -68 45
-133 64 -57 18 -88 23 -88 15z"/>
<path d="M21452 5376 c-41 -14 -126 -65 -119 -72 2 -2 27 5 55 16 102 39 214
15 290 -63 77 -79 101 -187 63 -288 -19 -49 -19 -50 -1 -34 10 9 28 40 41 68
42 98 25 212 -45 294 -59 70 -195 108 -284 79z"/>
<path d="M15240 5185 l0 -25 125 0 125 0 0 -320 0 -320 25 0 25 0 0 320 0 320
125 0 125 0 0 25 0 25 -275 0 -275 0 0 -25z"/>
<path d="M15910 4865 l0 -345 25 0 25 0 0 287 c0 177 4 283 9 278 5 -6 70
-113 144 -240 98 -167 140 -230 154 -230 13 0 56 65 158 240 l140 240 3 -287
2 -288 25 0 25 0 0 345 0 345 -22 0 c-19 -1 -48 -45 -177 -266 l-154 -266 -31
51 c-17 28 -87 148 -155 266 -106 184 -127 215 -147 215 l-24 0 0 -345z"/>
<path d="M5054 5101 c-2 -2 -4 -424 -4 -938 l0 -933 65 0 65 0 0 194 0 193
145 132 c79 72 157 143 173 156 l29 24 279 -349 279 -350 78 0 c43 0 77 4 75
8 -1 5 -140 180 -307 389 -167 210 -303 384 -302 387 0 4 119 117 263 252 145
136 272 255 283 265 19 19 18 19 -65 18 l-85 0 -420 -383 -420 -383 -5 661 -5
661 -58 0 c-32 0 -61 -2 -63 -4z"/>
<path d="M14044 5101 c-2 -2 -4 -424 -4 -938 l0 -933 65 0 65 0 0 373 c0 206
5 400 10 435 17 105 56 187 121 257 102 109 225 152 410 143 92 -5 107 -8 177
-44 91 -47 148 -110 183 -205 23 -63 23 -72 27 -511 l3 -448 65 0 65 0 -4 458
c-3 384 -6 466 -20 511 -51 171 -159 283 -322 334 -85 26 -276 31 -365 8 -132
-33 -233 -98 -303 -194 l-42 -58 -5 408 -5 408 -58 0 c-32 0 -61 -2 -63 -4z"/>
<path d="M630 4115 l0 -885 65 0 65 0 0 290 0 290 309 0 c170 0 321 3 337 6
28 5 36 -4 239 -290 l210 -295 77 -1 77 0 -206 288 c-113 158 -212 295 -221
305 -8 9 -13 19 -11 21 2 2 38 18 80 35 142 59 251 175 301 320 20 56 23 86
23 201 0 115 -3 145 -23 202 -57 165 -183 288 -359 349 -115 40 -226 49 -605
49 l-358 0 0 -885z m806 750 c108 -19 215 -67 279 -126 61 -56 112 -161 125
-259 31 -220 -55 -401 -231 -487 -125 -61 -152 -65 -516 -70 l-333 -5 0 481 0
481 294 0 c218 0 316 -4 382 -15z"/>
<path d="M9460 4115 l0 -885 610 0 610 0 0 60 0 60 -545 0 -545 0 0 360 0 360
470 0 470 0 0 58 0 57 -467 0 -468 0 -3 348 -2 347 530 0 531 0 -3 58 -3 57
-592 3 -593 2 0 -885z"/>
<path d="M7780 4695 l0 -145 -120 0 -120 0 0 -55 0 -55 120 0 120 0 0 -449 c0
-261 4 -471 10 -502 21 -111 82 -192 179 -238 50 -23 68 -26 171 -26 121 1
190 18 249 64 22 17 23 21 12 47 -6 16 -18 37 -26 48 -14 18 -15 18 -40 -2
-46 -37 -120 -55 -200 -50 -97 6 -150 37 -191 110 l-29 53 -3 473 -3 472 210
0 211 0 0 55 0 55 -210 0 -210 0 0 145 0 145 -65 0 -65 0 0 -145z"/>
<path d="M13250 4695 l0 -145 -125 0 -125 0 0 -55 0 -55 125 0 125 0 0 -469
c0 -447 1 -472 21 -536 17 -55 31 -78 74 -121 43 -44 64 -56 125 -75 123 -37
277 -19 377 45 18 12 33 24 33 29 0 4 -12 25 -26 47 -27 40 -27 40 -53 23 -55
-36 -87 -46 -156 -51 -116 -7 -194 29 -238 111 -22 42 -22 47 -25 520 l-3 477
211 0 210 0 0 55 0 55 -210 0 -209 0 -3 143 -3 142 -62 3 -63 3 0 -146z"/>
<path d="M2670 4546 c-145 -32 -235 -80 -335 -181 -124 -124 -185 -279 -185
-475 0 -125 21 -216 71 -320 33 -67 59 -102 123 -165 129 -127 274 -185 466
-185 292 0 525 161 625 430 37 100 47 287 20 405 -26 118 -86 226 -175 315
-122 122 -253 177 -440 185 -68 3 -128 0 -170 -9z m279 -121 c191 -50 345
-217 380 -409 64 -350 -142 -647 -469 -681 -192 -19 -404 84 -496 241 -103
175 -111 406 -22 586 60 120 190 226 325 263 65 18 216 18 282 0z"/>
<path d="M4185 4545 c-149 -27 -261 -89 -361 -199 -113 -123 -166 -268 -166
-456 0 -207 54 -344 191 -480 96 -96 170 -138 299 -171 90 -23 237 -25 332 -5
127 27 251 99 319 185 l32 40 -48 36 -47 36 -35 -40 c-91 -102 -225 -156 -386
-154 -155 1 -273 49 -375 153 -103 104 -150 228 -150 399 0 120 28 230 80 309
104 160 256 242 450 242 150 0 262 -42 361 -137 l57 -54 45 32 c55 38 54 40
-32 122 -134 128 -349 182 -566 142z"/>
<path d="M6765 4553 c-118 -16 -255 -83 -341 -168 -124 -123 -184 -266 -191
-460 -6 -149 11 -238 66 -350 76 -152 208 -266 377 -321 82 -27 101 -29 234
-29 159 0 225 15 341 76 54 29 159 113 159 128 0 4 -15 25 -33 46 l-33 38 -58
-46 c-181 -148 -426 -175 -641 -72 -158 76 -274 246 -287 420 l-3 40 566 3
c529 2 567 3 571 20 8 31 -9 179 -27 234 -76 229 -247 389 -467 433 -72 14
-163 17 -233 8z m287 -142 c161 -63 287 -226 312 -403 l7 -48 -505 0 -506 0 0
23 c0 41 29 136 60 198 57 111 154 196 276 239 83 29 272 24 356 -9z"/>
<path d="M11275 4550 c-133 -21 -279 -81 -370 -154 l-28 -23 32 -46 32 -47 48
35 c62 44 159 89 242 110 48 13 95 16 189 13 112 -3 131 -7 182 -31 69 -34
140 -109 163 -175 10 -27 19 -91 22 -153 l5 -106 -293 -6 c-162 -3 -314 -10
-339 -16 -144 -31 -229 -91 -282 -199 -30 -60 -33 -75 -33 -157 0 -76 4 -99
27 -146 69 -148 227 -229 448 -229 201 0 336 59 448 195 l32 40 0 -113 0 -112
60 0 60 0 0 453 c0 282 -4 476 -11 513 -31 172 -143 294 -312 340 -66 18 -243
26 -322 14z m513 -816 l3 -131 -50 -75 c-105 -156 -288 -230 -491 -199 -125
20 -209 71 -252 155 -29 55 -31 175 -4 226 41 78 99 119 196 139 83 17 106 18
360 17 l235 -1 3 -131z"/>
<path d="M12671 4545 c-138 -25 -252 -99 -323 -209 l-38 -59 0 136 0 137 -60
0 -60 0 0 -660 0 -660 59 0 59 0 5 403 c5 434 8 459 63 568 31 63 104 143 159
174 54 31 138 55 216 60 l64 4 0 58 0 58 -35 2 c-19 1 -68 -4 -109 -12z"/>
</g>
</svg>
